<svg xmlns="http://www.w3.org/2000/svg" xmlns:xlink="http://www.w3.org/1999/xlink" width="500" zoomAndPan="magnify" viewBox="0 0 375 374.999991" height="500" preserveAspectRatio="xMidYMid meet" version="1.0"><defs><clipPath id="69d33486bf"><path d="M 112.5 112.5 L 262.5 112.5 L 262.5 262.5 L 112.5 262.5 Z M 112.5 112.5 " clip-rule="nonzero"/></clipPath></defs><g clip-path="url(#69d33486bf)"><path fill="#00ff08" d="M 240.203125 262.5 L 134.796875 262.5 C 122.503906 262.5 112.5 252.496094 112.5 240.203125 L 112.5 134.796875 C 112.5 122.503906 122.503906 112.5 134.796875 112.5 L 240.203125 112.5 C 252.496094 112.5 262.5 122.503906 262.5 134.796875 L 262.5 240.203125 C 262.5 252.496094 252.496094 262.5 240.203125 262.5 Z M 134.796875 120.609375 C 126.972656 120.609375 120.609375 126.972656 120.609375 134.796875 L 120.609375 240.203125 C 120.609375 248.027344 126.972656 254.390625 134.796875 254.390625 L 240.203125 254.390625 C 248.027344 254.390625 254.390625 248.027344 254.390625 240.203125 L 254.390625 134.796875 C 254.390625 126.972656 248.027344 120.609375 240.203125 120.609375 Z M 134.796875 120.609375 " fill-opacity="1" fill-rule="nonzero"/></g><path fill="#00ff08" d="M 187.5 230.066406 C 164.027344 230.066406 144.933594 210.972656 144.933594 187.5 C 144.933594 164.027344 164.027344 144.933594 187.5 144.933594 C 210.972656 144.933594 230.066406 164.027344 230.066406 187.5 C 230.066406 210.972656 210.972656 230.066406 187.5 230.066406 Z M 187.5 153.039062 C 168.5 153.039062 153.039062 168.5 153.039062 187.5 C 153.039062 206.5 168.5 221.960938 187.5 221.960938 C 206.5 221.960938 221.960938 206.5 221.960938 187.5 C 221.960938 168.5 206.5 153.039062 187.5 153.039062 Z M 187.5 153.039062 " fill-opacity="1" fill-rule="nonzero"/><path fill="#00ff08" d="M 232.09375 157.09375 C 224.269531 157.09375 217.90625 150.730469 217.90625 142.90625 C 217.90625 135.082031 224.269531 128.714844 232.09375 128.714844 C 239.917969 128.714844 246.285156 135.082031 246.285156 142.90625 C 246.285156 150.730469 239.917969 157.09375 232.09375 157.09375 Z M 232.09375 136.824219 C 228.742188 136.824219 226.011719 139.550781 226.011719 142.90625 C 226.011719 146.257812 228.742188 148.988281 232.09375 148.988281 C 235.449219 148.988281 238.175781 146.257812 238.175781 142.90625 C 238.175781 139.550781 235.449219 136.824219 232.09375 136.824219 Z M 232.09375 136.824219 " fill-opacity="1" fill-rule="nonzero"/></svg>